<svg width="36" height="36" viewBox="0 0 36 36" fill="none" xmlns="http://www.w3.org/2000/svg">
<path fill-rule="evenodd" clip-rule="evenodd" d="M14.3854 6.03267H4.90454C4.18098 6.03267 3.57718 6.58515 3.51302 7.30622C3.51302 7.30622 1.96787 24.6661 1.37262 31.3574C1.27888 32.4121 1.63246 33.4579 2.34712 34.2389C3.06213 35.0202 4.07227 35.4653 5.13088 35.4653H24.9152C25.9738 35.4653 26.9843 35.0202 27.699 34.2389C28.4136 33.4579 28.7676 32.4121 28.6735 31.3574L27.1565 14.3095H31.3603C33.1731 14.3095 34.6423 12.8402 34.6423 11.0274V3.81671C34.6423 2.00388 33.1731 0.534653 31.3603 0.534653H17.6674C15.8546 0.534653 14.3854 2.00388 14.3854 3.81671V6.03267ZM14.3854 7.4299H4.90454C4.90454 7.4299 3.35975 24.7901 2.76415 31.4811C2.70534 32.1455 2.92775 32.8038 3.37793 33.2957C3.82811 33.7876 4.46435 34.0681 5.13088 34.0681H24.9152C25.5817 34.0681 26.218 33.7876 26.6681 33.2957C27.1183 32.8038 27.3411 32.1455 27.2819 31.4811L25.8437 15.32L24.6935 16.7143C24.2921 17.2012 23.6142 17.3584 23.0393 17.0982C22.4647 16.838 22.1357 16.225 22.2366 15.6019L22.4458 14.3095H21.1541C21.1231 15.6162 20.5902 16.863 19.6638 17.7893C18.7089 18.7446 17.4137 19.281 16.0631 19.281H13.983C12.6324 19.281 11.3371 18.7446 10.3822 17.7893C9.42735 16.8345 8.89056 15.5392 8.89056 14.1886V11.6576C8.89056 11.2723 9.20316 10.9597 9.58882 10.9597H9.58989C9.97555 10.9597 10.2878 11.2723 10.2878 11.6576V14.1886C10.2878 15.1685 10.6774 16.1084 11.3703 16.8013C12.0632 17.4946 13.0031 17.8838 13.983 17.8838H16.0631C17.043 17.8838 17.9829 17.4946 18.6758 16.8013C19.3402 16.1369 19.7255 15.2455 19.7561 14.3095H17.6674C15.8546 14.3095 14.3854 12.8402 14.3854 11.0274V7.4299ZM24.0876 12.9122L23.6156 15.8254L26.018 12.9122H31.3603C32.4014 12.9122 33.2451 12.0686 33.2451 11.0274V3.81671C33.2451 2.77556 32.4014 1.93188 31.3603 1.93188H17.6674C16.6263 1.93188 15.7826 2.77556 15.7826 3.81671V11.0274C15.7826 12.0686 16.6263 12.9122 17.6674 12.9122H24.0876ZM24.5139 3.48986C23.1925 2.68752 21.5209 2.93204 20.567 3.72333C19.3712 4.71564 19.065 6.68816 20.2537 8.67279C20.8832 9.78701 22.4747 10.9693 23.8377 11.7232C24.2583 11.9556 24.7694 11.9556 25.19 11.7232C26.548 10.9722 28.1327 9.79592 28.7761 8.66887C29.9623 6.68709 29.6561 4.71529 28.4603 3.72333C27.5068 2.93204 25.8352 2.68752 24.5139 3.48986ZM24.5139 5.43208C25.2773 4.16531 26.8047 4.16531 27.5685 4.79869C28.332 5.43208 28.332 6.69921 27.5685 7.96634C27.0338 8.91659 25.6594 9.86685 24.5139 10.5002C23.3683 9.86685 21.9939 8.91659 21.4592 7.96634C20.6957 6.69921 20.6957 5.43208 21.4592 4.79869C22.223 4.16531 23.7504 4.16531 24.5139 5.43208Z" fill="#20A39E"/>
</svg>
