<svg width="24" height="24" viewBox="0 0 24 24" fill="none" xmlns="http://www.w3.org/2000/svg">
<path d="M7.42487 11.5106C7.60585 12.03 7.7989 12.5418 8.05157 13.0312C8.44315 13.7896 8.9548 14.2297 8.34415 15.0157L8.01227 15.4308C7.27536 16.3399 8.24297 16.2854 8.92442 16.2869L18.1486 16.2873C18.2855 16.2867 18.97 16.295 19.0659 16.1894C19.0123 15.8782 18.5108 15.9053 18.2705 15.9054L8.59645 15.9091C8.22621 15.9083 8.31587 15.3279 8.67194 15.3231L18.4477 15.3301C18.8753 15.3446 19.5084 15.5625 19.6773 15.9902C19.7448 16.1613 19.744 16.4493 19.6681 16.6178C19.5622 16.853 19.3616 16.8292 19.1406 16.8434L8.33245 16.8622C7.87848 16.8406 7.33765 16.662 7.17655 16.1865C7.01646 15.714 7.48052 15.1622 7.75326 14.8154C8.20472 14.2414 8.07156 14.2351 7.71197 13.6365C6.92395 12.3248 6.50702 10.547 6.23065 9.06662C5.97385 7.69112 5.69931 5.61939 4.50066 4.71793C4.06611 4.39112 3.50047 4.21239 2.97278 4.10417L2.60127 4.04327C2.39792 4.01953 2.08715 4.05197 2.02154 3.79798C1.97326 3.61107 2.07428 3.47968 2.25497 3.43533C2.4227 3.433 2.5912 3.45843 2.75682 3.4821C5.03594 3.80781 5.83712 4.96802 6.40431 7.01766L6.5251 7.52507C6.54036 7.60116 6.54291 7.67957 6.5668 7.75363L20.1745 7.75498C20.4809 7.75551 20.7483 7.78626 20.6195 8.17142L18.652 13.2632C18.5625 13.4931 18.4921 13.7675 18.3603 13.9746C17.8168 14.8293 16.6945 14.7435 15.8311 14.7437L9.36809 14.7461C8.95952 14.7359 8.89675 14.2528 9.24452 14.1702C9.36422 14.1418 9.52371 14.1647 9.64844 14.1648L16.1725 14.1656C16.7349 14.1655 17.4898 14.2157 17.8539 13.6672C17.9514 13.5203 18.0063 13.306 18.0707 13.1402L19.9338 8.33586L6.68699 8.32952L7.42487 11.5106Z" fill="#1A827E"/>
<path d="M18.1035 9.91124L8.29124 9.91458C7.93031 9.89995 7.86536 9.38662 8.36306 9.3325L17.1428 9.33869C17.4782 9.33862 17.825 9.3196 18.1586 9.34045C18.4827 9.36067 18.6041 9.84033 18.1035 9.91124ZM17.5461 11.5194L8.73352 11.5136C8.31018 11.5045 8.28569 11.0398 8.66557 10.9371C9.03307 10.9128 9.41272 10.9315 9.78127 10.9315L17.5255 10.933C17.8805 10.9381 17.88 11.4536 17.5461 11.5194ZM9.75018 13.1389L9.36329 13.1428C8.74691 13.1532 8.98706 12.6021 9.26868 12.5744C9.35077 12.5663 9.43904 12.5723 9.52166 12.5724L16.3099 12.5727L16.6957 12.5698C16.7515 12.5696 16.8277 12.5619 16.8806 12.5789C17.1308 12.6595 17.1313 13.0991 16.8735 13.1335C16.789 13.1448 16.6961 13.1393 16.6106 13.1394L9.75018 13.1389ZM9.73724 20.2263L9.71868 20.2289C8.36366 20.4085 7.49272 18.7625 8.32668 17.7261C8.58727 17.4023 8.97224 17.1947 9.38384 17.1491C11.3018 16.8963 11.791 19.9355 9.73724 20.2263ZM9.47658 17.7353C8.30838 17.8533 8.29679 19.5019 9.40447 19.6422L9.42551 19.645C9.49342 19.6534 9.55848 19.6486 9.62643 19.6433C10.9087 19.4922 10.6811 17.6446 9.47658 17.7353ZM16.2363 20.2602C14.8598 20.2938 14.1064 18.6969 15.0169 17.6797C15.3093 17.353 15.699 17.1852 16.132 17.1613C18.2157 17.2098 18.2581 20.0849 16.2363 20.2602ZM16.1148 17.7585C15.5647 17.8102 15.156 18.2497 15.2141 18.8143L15.224 18.8851C15.2909 19.3545 15.7583 19.7024 16.2228 19.6709C17.5158 19.5622 17.3743 17.6893 16.1148 17.7585Z" fill="#1A827E"/>
<path d="M11.5495 19.1083C10.9347 19.189 10.7908 18.4073 11.3491 18.2362C11.9542 18.1627 12.1368 18.9321 11.5495 19.1083ZM18.1091 19.144C17.5019 19.1623 17.4444 18.3353 18.0592 18.2383C18.6854 18.2509 18.7394 19.0674 18.1091 19.144Z" fill="#1A827E"/>
</svg>
