<svg width="20" height="20" viewBox="0 0 20 20" fill="none" xmlns="http://www.w3.org/2000/svg">
<path d="M10 1C12.0669 0.998827 14.0712 1.70911 15.6762 3.01149C17.2811 4.31387 18.3889 6.12898 18.8133 8.15183C19.2378 10.1747 18.953 12.282 18.0069 14.1196C17.0608 15.9573 15.5111 17.4133 13.618 18.243L11.425 12.641C12.0127 12.3239 12.4778 11.8198 12.7467 11.2085C13.0155 10.5972 13.0727 9.91364 12.9092 9.26616C12.7456 8.61868 12.3708 8.04428 11.8439 7.63394C11.317 7.22359 10.6683 7.00077 10.0005 7.00077C9.3327 7.00077 8.68398 7.22359 8.15712 7.63394C7.63025 8.04428 7.25536 8.61868 7.09184 9.26616C6.92831 9.91364 6.98549 10.5972 7.25433 11.2085C7.52317 11.8198 7.98828 12.3239 8.576 12.641L6.38301 18.244C4.48943 17.4147 2.93907 15.9588 1.99252 14.121C1.04596 12.2832 0.760914 10.1756 1.18529 8.15242C1.60966 6.12923 2.71758 4.3138 4.32283 3.01127C5.92808 1.70875 7.93279 0.998532 10 1V1Z" stroke="#8F3737" stroke-width="2" stroke-linecap="round" stroke-linejoin="round"/>
</svg>
