<svg width="24" height="24" viewBox="0 0 24 24" fill="none" xmlns="http://www.w3.org/2000/svg">
<path d="M7.32012 22.4H16.7601C17.8401 22.4 18.6801 21.52 18.6801 20.48V7.48H19.5201C19.7601 7.48 19.9201 7.32 19.9201 7.08V6.16C19.9201 5.32 19.2401 4.68 18.4401 4.68H15.0401V3.64C15.0401 2.96 14.4801 2.4 13.8001 2.4H10.2401C9.56012 2.4 9.00012 2.96 9.00012 3.64V4.68H5.60012C4.76012 4.68 4.12012 5.36 4.12012 6.16V7.08C4.12012 7.32 4.28012 7.48 4.52012 7.48H5.36012V20.48C5.36012 21.52 6.24012 22.4 7.32012 22.4ZM17.8801 20.48C17.8801 21.12 17.3601 21.6 16.7601 21.6H7.32012C6.68012 21.6 6.20012 21.08 6.20012 20.48V7.48H17.9201V20.48H17.8801ZM9.80012 3.64C9.80012 3.4 10.0001 3.2 10.2401 3.2H13.8001C14.0401 3.2 14.2401 3.4 14.2401 3.64V4.68H9.84012V3.64H9.80012ZM4.92012 6.16C4.92012 5.76 5.24012 5.48 5.60012 5.48H18.4001C18.8001 5.48 19.0801 5.8 19.0801 6.16V6.68H4.92012V6.16Z" fill="#BF4949"/>
<path d="M15.16 19.68C15.4 19.68 15.56 19.52 15.56 19.28V9.76C15.56 9.52 15.4 9.36 15.16 9.36C14.92 9.36 14.76 9.52 14.76 9.76V19.28C14.76 19.52 14.96 19.68 15.16 19.68ZM12.04 19.68C12.28 19.68 12.44 19.52 12.44 19.28V9.76C12.44 9.52 12.28 9.36 12.04 9.36C11.8 9.36 11.64 9.52 11.64 9.76V19.28C11.64 19.52 11.8 19.68 12.04 19.68ZM8.87998 19.68C9.11998 19.68 9.27998 19.52 9.27998 19.28V9.76C9.27998 9.52 9.11998 9.36 8.87998 9.36C8.63998 9.36 8.47998 9.52 8.47998 9.76V19.28C8.47998 19.52 8.63998 19.68 8.87998 19.68Z" fill="#BF4949"/>
</svg>
