<svg width="60" height="50" viewBox="0 0 60 50" fill="none" xmlns="http://www.w3.org/2000/svg">
<path d="M59.5312 25C59.5312 33.125 51.6562 39.7656 41.8125 39.7656C32.0625 39.7656 24.0938 33.125 24.0938 25C24.0938 16.875 31.9687 10.2344 41.7188 10.2344C51.6562 10.2344 59.5312 16.875 59.5312 25Z" fill="#FFB600"/>
<path d="M41.8125 10.2344C51.5625 10.2344 59.5312 16.875 59.5312 25C59.5312 33.125 51.6562 39.7656 41.8125 39.7656C32.0625 39.7656 24.0938 33.125 24.0938 25" fill="#F7981D"/>
<path d="M41.8125 10.2344C51.5625 10.2344 59.5313 16.875 59.5313 25C59.5313 33.125 51.6562 39.7656 41.8125 39.7656" fill="#FF8500"/>
<path d="M18 10.2344C8.34375 10.3125 0.46875 16.875 0.46875 25C0.46875 33.125 8.34375 39.7656 18.1875 39.7656C22.7812 39.7656 26.9062 38.2813 30.0937 35.9375C30.75 35.4688 31.3125 34.9219 31.875 34.375H28.2188C27.75 33.9063 27.2812 33.3594 26.9062 32.8906H33.1875C33.5625 32.4219 33.9375 31.875 34.2188 31.3281H25.875C25.5938 30.8594 25.3125 30.3125 25.125 29.7656H34.875C35.4375 28.2812 35.8125 26.7188 35.8125 25.0781C35.8125 23.9844 35.625 22.9688 35.4375 21.9531H24.5625C24.6562 21.4063 24.8438 20.9375 25.0312 20.3906H34.7812C34.5938 19.8438 34.3125 19.2969 34.0312 18.8281H25.7812C26.0625 18.2813 26.4375 17.8125 26.8125 17.2656H33.0938C32.7188 16.7188 32.25 16.1719 31.6875 15.7031H28.2188C28.7812 15.1563 29.3438 14.6875 30 14.2188C26.9062 11.7969 22.6875 10.3906 18.0938 10.3906C18.0938 10.2344 18.0938 10.2344 18 10.2344Z" fill="#FF5050"/>
<path d="M0.46875 25C0.46875 33.125 8.34375 39.7656 18.1875 39.7656C22.7812 39.7656 26.9062 38.2812 30.0937 35.9375C30.75 35.4688 31.3125 34.9219 31.875 34.375H28.2188C27.75 33.9062 27.2812 33.3594 26.9062 32.8906H33.1875C33.5625 32.4219 33.9375 31.875 34.2188 31.3281H25.875C25.5938 30.8594 25.3125 30.3125 25.125 29.7656H34.875C35.4375 28.2812 35.8125 26.7188 35.8125 25.0781C35.8125 23.9844 35.625 22.9688 35.4375 21.9531H24.5625C24.6562 21.4062 24.8438 20.9375 25.0312 20.3906H34.7812C34.5938 19.8438 34.3125 19.2969 34.0312 18.8281H25.7812C26.0625 18.2812 26.4375 17.8125 26.8125 17.2656H33.0938C32.7188 16.7188 32.25 16.1719 31.6875 15.7031H28.2188C28.7812 15.1562 29.3438 14.6875 30 14.2188C26.9062 11.7969 22.6875 10.3906 18.0938 10.3906H18" fill="#E52836"/>
<path d="M18.1875 39.7656C22.7812 39.7656 26.9062 38.2812 30.0937 35.9375C30.75 35.4688 31.3125 34.9219 31.875 34.375H28.2188C27.75 33.9062 27.2812 33.3594 26.9062 32.8906H33.1875C33.5625 32.4219 33.9375 31.875 34.2188 31.3281H25.875C25.5937 30.8594 25.3125 30.3125 25.125 29.7656H34.875C35.4375 28.2812 35.8125 26.7188 35.8125 25.0781C35.8125 23.9844 35.625 22.9688 35.4375 21.9531H24.5625C24.6562 21.4062 24.8438 20.9375 25.0312 20.3906H34.7812C34.5937 19.8438 34.3125 19.2969 34.0312 18.8281H25.7812C26.0625 18.2812 26.4375 17.8125 26.8125 17.2656H33.0937C32.7187 16.7188 32.25 16.1719 31.6875 15.7031H28.2188C28.7812 15.1562 29.3437 14.6875 30 14.2188C26.9062 11.7969 22.6875 10.3906 18.0937 10.3906H18" fill="#CB2026"/>
<path d="M24.4688 28.75L24.75 27.4219C24.6562 27.4219 24.4688 27.5 24.2812 27.5C23.625 27.5 23.5313 27.1875 23.625 27.0312L24.1875 24.2969H25.2188L25.5 22.8125H24.5625L24.75 21.875H22.875C22.875 21.875 21.75 27.0313 21.75 27.6563C21.75 28.5938 22.4062 28.9844 23.25 28.9844C23.8125 28.9844 24.2813 28.8281 24.4688 28.75ZM25.125 26.25C25.125 28.4375 26.9062 28.9844 28.4062 28.9844C29.8125 28.9844 30.375 28.75 30.375 28.75L30.75 27.2656C30.75 27.2656 29.7188 27.6563 28.7813 27.6563C26.7188 27.6563 27.0938 26.4062 27.0938 26.4062H30.9375C30.9375 26.4062 31.2188 25.3906 31.2188 25C31.2188 23.9844 30.5625 22.7344 28.5 22.7344C26.5312 22.5781 25.125 24.2969 25.125 26.25ZM28.4062 23.9844C29.4375 23.9844 29.25 25 29.25 25.0781H27.1875C27.1875 25 27.375 23.9844 28.4062 23.9844ZM40.3125 28.75L40.6875 27.0312C40.6875 27.0312 39.75 27.4219 39.0938 27.4219C37.7812 27.4219 37.2188 26.5625 37.2188 25.625C37.2188 23.75 38.3438 22.7344 39.6562 22.7344C40.5938 22.7344 41.3438 23.2031 41.3438 23.2031L41.625 21.5625C41.625 21.5625 40.5 21.1719 39.4688 21.1719C37.3125 21.1719 35.1562 22.7344 35.1562 25.7031C35.1562 27.6563 36.2812 28.9844 38.5312 28.9844C39.2812 28.9844 40.3125 28.75 40.3125 28.75ZM14.1562 22.5781C12.8438 22.5781 11.9062 22.8906 11.9062 22.8906L11.625 24.2188C11.625 24.2188 12.4688 23.9063 13.6875 23.9063C14.3438 23.9063 14.9062 23.9844 14.9062 24.4531C14.9062 24.7656 14.8125 24.8437 14.8125 24.8437H13.9687C12.375 24.8437 10.5938 25.3906 10.5938 27.1875C10.5938 28.5937 11.7188 28.9063 12.375 28.9063C13.6875 28.9063 14.25 28.2031 14.3438 28.2031L14.25 28.8281H15.9375L16.6875 24.5312C16.6875 22.6562 14.8125 22.5781 14.1562 22.5781ZM14.5312 26.0938C14.5312 26.3281 14.3438 27.5781 13.2188 27.5781C12.6562 27.5781 12.4688 27.1875 12.4688 26.9531C12.4688 26.5625 12.75 26.0156 14.1562 26.0156C14.4375 26.0937 14.5312 26.0938 14.5312 26.0938ZM18.4688 28.9063C18.9375 28.9063 21.2813 28.9844 21.2813 26.875C21.2813 24.9219 19.0312 25.3125 19.0312 24.5312C19.0312 24.1406 19.4062 23.9844 20.0625 23.9844C20.3438 23.9844 21.375 24.0625 21.375 24.0625L21.6563 22.6562C21.6563 22.6562 21 22.5 19.875 22.5C18.4688 22.5 17.0625 22.9687 17.0625 24.5312C17.0625 26.3281 19.4063 26.1719 19.4063 26.875C19.4063 27.3438 18.75 27.4219 18.2812 27.4219C17.4375 27.4219 16.5938 27.1875 16.5938 27.1875L16.3125 28.5937C16.4062 28.75 16.875 28.9063 18.4688 28.9063ZM55.875 21.3281L55.5 23.4375C55.5 23.4375 54.75 22.6562 53.7188 22.6562C52.0312 22.6562 50.5313 24.375 50.5313 26.4062C50.5313 27.6562 51.2813 28.9844 52.875 28.9844C54 28.9844 54.6562 28.3594 54.6562 28.3594L54.5625 28.9063H56.4375L57.8438 21.4062L55.875 21.3281ZM55.0312 25.4687C55.0312 26.3281 54.5625 27.4219 53.5312 27.4219C52.875 27.4219 52.5 26.9531 52.5 26.1719C52.5 24.9219 53.1562 24.1406 54 24.1406C54.6562 24.1406 55.0312 24.5312 55.0312 25.4687ZM3.9375 28.8281L5.0625 23.2031L5.25 28.8281H6.5625L9 23.2031L7.96875 28.8281H9.9375L11.4375 21.3281H8.34375L6.46875 25.9375L6.375 21.3281H3.65625L2.15625 28.8281H3.9375ZM33 28.8281C33.5625 26.25 33.6562 24.1406 34.9688 24.5312C35.1562 23.5156 35.4375 23.125 35.625 22.7344H35.25C34.4062 22.7344 33.75 23.6719 33.75 23.6719L33.9375 22.8125H32.1562L30.9375 28.9063H33V28.8281ZM44.625 22.5781C43.3125 22.5781 42.375 22.8906 42.375 22.8906L42.0938 24.2188C42.0938 24.2188 42.9375 23.9063 44.1562 23.9063C44.8125 23.9063 45.375 23.9844 45.375 24.4531C45.375 24.7656 45.2812 24.8437 45.2812 24.8437H44.4375C42.8438 24.8437 41.0625 25.3906 41.0625 27.1875C41.0625 28.5937 42.1875 28.9063 42.8438 28.9063C44.1562 28.9063 44.7188 28.2031 44.8125 28.2031L44.7188 28.8281H46.4062L47.1562 24.5312C47.25 22.6562 45.2812 22.5781 44.625 22.5781ZM45.0938 26.0938C45.0938 26.3281 44.9062 27.5781 43.7812 27.5781C43.2188 27.5781 43.0313 27.1875 43.0313 26.9531C43.0313 26.5625 43.3125 26.0156 44.7188 26.0156C45 26.0937 45 26.0938 45.0938 26.0938ZM48.75 28.8281C49.3125 26.25 49.4062 24.1406 50.7188 24.5312C50.9062 23.5156 51.1875 23.125 51.375 22.7344H51C50.1563 22.7344 49.5 23.6719 49.5 23.6719L49.6875 22.8125H47.9062L46.6875 28.9063H48.75V28.8281Z" fill="white"/>
<path d="M21.5625 27.6563C21.5625 28.5938 22.2188 28.9844 23.0625 28.9844C23.7188 28.9844 24.2813 28.8281 24.4688 28.75L24.75 27.4219C24.6562 27.4219 24.4688 27.5 24.2812 27.5C23.625 27.5 23.5313 27.1875 23.625 27.0312L24.1875 24.2969H25.2188L25.5 22.8125H24.5625L24.75 21.875M26.0625 26.25C26.0625 28.4375 26.9062 28.9844 28.4062 28.9844C29.8125 28.9844 30.375 28.75 30.375 28.75L30.75 27.2656C30.75 27.2656 29.7188 27.6563 28.7813 27.6563C26.7188 27.6563 27.0938 26.4062 27.0938 26.4062H30.9375C30.9375 26.4062 31.2188 25.3906 31.2188 25C31.2188 23.9844 30.5625 22.7344 28.5 22.7344C26.5312 22.5781 26.0625 24.2969 26.0625 26.25ZM28.4062 23.9844C29.4375 23.9844 29.625 25 29.625 25.0781H27.1875C27.1875 25 27.375 23.9844 28.4062 23.9844ZM40.3125 28.75L40.6875 27.0312C40.6875 27.0312 39.75 27.4219 39.0938 27.4219C37.7812 27.4219 37.2188 26.5625 37.2188 25.625C37.2188 23.75 38.3438 22.7344 39.6562 22.7344C40.5938 22.7344 41.3438 23.2031 41.3438 23.2031L41.625 21.5625C41.625 21.5625 40.5 21.1719 39.4688 21.1719C37.3125 21.1719 36.0938 22.7344 36.0938 25.7031C36.0938 27.6563 36.2812 28.9844 38.5312 28.9844C39.2812 28.9844 40.3125 28.75 40.3125 28.75ZM11.625 24.2969C11.625 24.2969 12.4688 23.9844 13.6875 23.9844C14.3438 23.9844 14.9062 24.0625 14.9062 24.5312C14.9062 24.8437 14.8125 24.9219 14.8125 24.9219H13.9687C12.375 24.9219 10.5938 25.4688 10.5938 27.2656C10.5938 28.6719 11.7188 28.9844 12.375 28.9844C13.6875 28.9844 14.25 28.2813 14.3438 28.2813L14.25 28.9063H15.9375L16.6875 24.6094C16.6875 22.8125 14.8125 22.7344 14.0625 22.7344M15.4688 26.0938C15.4688 26.3281 14.3438 27.5781 13.2188 27.5781C12.6562 27.5781 12.4688 27.1875 12.4688 26.9531C12.4688 26.5625 12.75 26.0156 14.1562 26.0156C14.4375 26.0937 15.4688 26.0938 15.4688 26.0938ZM16.4062 28.75C16.4062 28.75 16.9688 28.9063 18.5625 28.9063C19.0312 28.9063 21.375 28.9844 21.375 26.875C21.375 24.9219 19.125 25.3125 19.125 24.5312C19.125 24.1406 19.5 23.9844 20.1562 23.9844C20.4375 23.9844 21.4688 24.0625 21.4688 24.0625L21.75 22.6562C21.75 22.6562 21.0938 22.5 19.9688 22.5C18.5625 22.5 18.0938 22.9687 18.0938 24.5312C18.0938 26.3281 19.5 26.1719 19.5 26.875C19.5 27.3438 18.8438 27.4219 18.375 27.4219M55.5 23.4375C55.5 23.4375 54.75 22.6562 53.7188 22.6562C52.0312 22.6562 51.4688 24.375 51.4688 26.4062C51.4688 27.6562 51.2813 28.9844 52.875 28.9844C54 28.9844 54.6562 28.3594 54.6562 28.3594L54.5625 28.9063H56.4375L57.8438 21.4062M55.4062 25.4687C55.4062 26.3281 54.5625 27.4219 53.5312 27.4219C52.875 27.4219 52.5 26.9531 52.5 26.1719C52.5 24.9219 53.1562 24.1406 54 24.1406C54.6562 24.1406 55.4062 24.5312 55.4062 25.4687ZM3.9375 28.8281L5.0625 23.2031L5.25 28.8281H6.5625L9 23.2031L7.96875 28.8281H9.9375L11.4375 21.3281H9.09375L6.46875 25.9375L6.375 21.3281H5.34375L2.15625 28.8281H3.9375ZM31.0312 28.8281H33C33.5625 26.25 33.6562 24.1406 34.9688 24.5312C35.1562 23.5156 35.4375 23.125 35.625 22.7344H35.25C34.4062 22.7344 33.75 23.6719 33.75 23.6719L33.9375 22.8125M42.0938 24.2969C42.0938 24.2969 42.9375 23.9844 44.1562 23.9844C44.8125 23.9844 45.375 24.0625 45.375 24.5312C45.375 24.8437 45.2812 24.9219 45.2812 24.9219H44.4375C42.8438 24.9219 41.0625 25.4688 41.0625 27.2656C41.0625 28.6719 42.1875 28.9844 42.8438 28.9844C44.1562 28.9844 44.7188 28.2813 44.8125 28.2813L44.7188 28.9063H46.4062L47.1562 24.6094C47.1562 22.8125 45.2812 22.7344 44.5312 22.7344M45.9375 26.0938C45.9375 26.3281 44.8125 27.5781 43.6875 27.5781C43.125 27.5781 42.9375 27.1875 42.9375 26.9531C42.9375 26.5625 43.2188 26.0156 44.625 26.0156C45 26.0937 45.9375 26.0938 45.9375 26.0938ZM46.7813 28.8281H48.75C49.3125 26.25 49.4062 24.1406 50.7188 24.5312C50.9062 23.5156 51.1875 23.125 51.375 22.7344H51C50.1563 22.7344 49.5 23.6719 49.5 23.6719L49.6875 22.8125" fill="#DCE5E5"/>
</svg>
