<svg width="24" height="24" viewBox="0 0 24 24" fill="none" xmlns="http://www.w3.org/2000/svg">
<path d="M18.9474 12C18.9474 12.3474 18.6632 12.6316 18.3158 12.6316H5.68421C5.33684 12.6316 5.05263 12.3474 5.05263 12C5.05263 11.6526 5.33684 11.3684 5.68421 11.3684H18.3158C18.6632 11.3684 18.9474 11.6526 18.9474 12ZM24 12C24 18.6316 18.6316 24 12 24C5.36842 24 0 18.6316 0 12C0 5.36842 5.36842 0 12 0C18.6316 0 24 5.36842 24 12ZM22.7368 12C22.7368 6.06316 17.9368 1.26316 12 1.26316C6.06316 1.26316 1.26316 6.06316 1.26316 12C1.26316 17.9368 6.06316 22.7368 12 22.7368C17.9368 22.7368 22.7368 17.9368 22.7368 12Z" fill="#BF4949"/>
</svg>
