<svg width="79" height="64" viewBox="0 0 79 64" fill="none" xmlns="http://www.w3.org/2000/svg">
<path d="M37.1854 41.2169L34.2973 43.1275L24.272 38.1044L24.206 38.148C24.4487 38.4723 24.6904 38.8006 24.9314 39.133C25.1724 39.4654 25.4133 39.7977 25.6543 40.1301C25.892 40.4576 26.1313 40.7875 26.3723 41.1199L29.7085 46.1631L27.6781 47.5064L20.5885 36.7895L23.4546 34.8935L33.4193 39.8409L33.4706 39.8069C33.241 39.4811 33.0105 39.1593 32.7793 38.8416C32.548 38.5239 32.3168 38.2062 32.0855 37.8884C31.8591 37.5675 31.6327 37.2465 31.4064 36.9256L28.0507 31.853L30.0959 30.5001L37.1854 41.2169ZM37.5704 28.9593C38.3278 28.4582 39.0772 28.1733 39.8185 28.1044C40.5565 28.0306 41.2573 28.1713 41.9207 28.5263C42.5841 28.8813 43.1793 29.4571 43.7062 30.2536L44.4239 31.3385L39.1388 34.8348C39.5802 35.449 40.0965 35.8206 40.6876 35.9494C41.2803 36.0702 41.8919 35.922 42.5223 35.505C43.0452 35.1591 43.4885 34.7885 43.8524 34.3933C44.2162 33.9981 44.5566 33.541 44.8737 33.0221L46.0182 34.752C45.7451 35.2207 45.4169 35.6486 45.0336 36.0356C44.6553 36.4194 44.1509 36.8198 43.5205 37.2369C42.6995 37.78 41.8711 38.1102 41.0354 38.2275C40.2045 38.3415 39.403 38.2078 38.6308 37.8264C37.8635 37.4418 37.1679 36.7779 36.544 35.8347C35.9104 34.8769 35.5447 33.9737 35.4469 33.125C35.3509 32.2683 35.4885 31.4887 35.8599 30.7863C36.2281 30.0791 36.7982 29.4701 37.5704 28.9593ZM38.6373 30.5403C38.2024 30.828 37.9329 31.2065 37.8288 31.6758C37.7297 32.1418 37.8553 32.6875 38.2057 33.3128L41.3431 31.2373C41.1183 30.9083 40.8617 30.653 40.573 30.4716C40.2893 30.287 39.9825 30.1949 39.6526 30.1953C39.3276 30.1925 38.9891 30.3075 38.6373 30.5403ZM55.3205 29.22L52.794 26.7709C52.6467 26.6225 52.424 26.408 52.126 26.1274C51.8247 25.8419 51.5016 25.5393 51.1566 25.2196C50.8132 24.8917 50.4942 24.5899 50.1994 24.3142C49.9095 24.0353 49.6973 23.8314 49.5629 23.7026L49.4969 23.7462C49.5629 23.9203 49.6676 24.1953 49.8109 24.5712C49.9542 24.9472 50.1071 25.3589 50.2696 25.8063C50.437 26.2506 50.5948 26.6696 50.7429 27.0634C50.8878 27.4523 50.9989 27.7477 51.0762 27.9495L52.2931 31.2227L49.8888 32.8133L42.1363 26.1601L44.3647 24.6859L47.7107 27.6888C47.9423 27.9009 48.2038 28.1635 48.4952 28.4766C48.7834 28.7847 49.0578 29.088 49.3184 29.3863C49.5806 29.6765 49.787 29.9088 49.9375 30.0833L49.9961 30.0445C49.9122 29.8963 49.8072 29.6952 49.6814 29.4412C49.5604 29.184 49.437 28.9179 49.3113 28.6428C49.1871 28.3596 49.0759 28.1065 48.9776 27.8835C48.8809 27.6524 48.8181 27.4937 48.7891 27.4075L47.2015 22.8093L49.6645 21.1799L53.2239 24.4737C53.3519 24.5928 53.5446 24.7885 53.802 25.0608C54.0643 25.3299 54.3258 25.6136 54.5863 25.9119C54.8437 26.2053 55.0362 26.4433 55.164 26.6258L55.2226 26.587C55.1322 26.4079 55.0032 26.1385 54.8355 25.7787C54.6677 25.419 54.4976 25.0397 54.3252 24.641C54.1544 24.2341 54.0191 23.8809 53.9194 23.5816L52.5013 19.3033L54.6931 17.8534L57.7541 27.6101L55.3205 29.22Z" fill="#D75252"/>
<path fill-rule="evenodd" clip-rule="evenodd" d="M14.3454 44.1308C14.5542 44.8139 14.5692 45.5831 14.2711 46.4897C13.8806 47.6749 13.0307 48.8557 12.0496 50.0305C12.0369 50.0452 12.0268 50.0582 12.0141 50.0729C12.0326 50.067 12.0485 50.0628 12.0671 50.0569C13.532 49.6135 14.9512 49.2933 16.1948 49.3975C17.1457 49.4778 17.8487 49.7939 18.3947 50.2519C20.6285 49.3252 22.8107 49.2138 24.1284 50.0522C24.3945 50.2225 24.5948 50.4236 24.784 50.6531C24.8586 50.7431 24.9289 50.8381 25.0154 50.918C25.506 51.3768 26.6214 51.2364 27.5972 50.5909L61.2169 28.3503C62.1927 27.7048 62.7573 26.7317 62.528 26.1022C62.4882 25.9913 62.4274 25.888 62.3746 25.7856C62.2374 25.5217 62.1308 25.2587 62.0781 24.9473C61.822 23.4065 62.7771 21.4404 64.5048 19.7485C64.296 19.0654 64.281 18.2962 64.579 17.3896C64.9696 16.2044 65.8195 15.0236 66.8006 13.8488C66.8133 13.8341 66.8234 13.8211 66.8361 13.8064C66.8176 13.8123 66.8016 13.8165 66.7831 13.8224C65.3182 14.2658 63.899 14.586 62.6554 14.4818C61.7045 14.4015 61.0015 14.0854 60.4554 13.6274C58.2217 14.5541 56.0395 14.6655 54.7218 13.8271C54.4557 13.6568 54.2554 13.4557 54.0662 13.2262C53.9916 13.1362 53.9213 13.0412 53.8348 12.9613C53.3442 12.5025 52.2288 12.6429 51.253 13.2884L17.6333 35.529C16.6575 36.1745 16.0929 37.1476 16.3222 37.7771C16.362 37.888 16.4228 37.9913 16.4756 38.0937C16.6128 38.3576 16.7194 38.6206 16.7721 38.9321C17.0282 40.4728 16.0731 42.4389 14.3454 44.1308ZM50.4401 12.0653C52.5271 10.6848 54.8501 10.419 55.8711 11.3798C56.146 11.6371 56.266 11.9145 56.6219 12.1415C57.7414 12.8555 59.8687 12.5313 61.7969 11.2558C63.4126 13.698 65.8181 12.5163 71.9503 10.4253C67.6297 15.2491 65.5985 17.0024 67.2142 19.4446C65.2886 20.7185 64.159 22.5509 64.3746 23.8609C64.4433 24.2757 64.6517 24.4946 64.7819 24.8498C65.2632 26.1655 64.1108 28.2009 62.0265 29.5798L28.4068 51.8203C26.3199 53.2009 23.9968 53.4667 22.9758 52.5059C22.7009 52.2486 22.5809 51.9711 22.2251 51.7442C21.1055 51.0301 18.9782 51.3543 17.05 52.6299C15.4343 50.1876 13.0288 51.3694 6.89665 53.4604C11.2173 48.6366 13.2484 46.8833 11.6328 44.441C13.5584 43.1672 14.6879 41.3347 14.4723 40.0248C14.4036 39.61 14.1952 39.3911 14.065 39.0359C13.5837 37.7202 14.7361 35.6848 16.8204 34.3059L50.4401 12.0653Z" fill="#D75252"/>
</svg>
