<svg width="16" height="16" viewBox="0 0 20 20" fill="none" xmlns="http://www.w3.org/2000/svg">
<path d="M18.976 16.648L14.44 12.112C15.208 10.912 15.568 9.52 15.568 8.152C15.568 4.096 12.328 0.880005 8.27202 0.880005C4.04802 0.880005 0.856017 4.216 0.880017 8.224C0.904017 12.232 4.14402 15.568 8.27202 15.568C9.66402 15.568 10.984 15.184 12.136 14.464L16.672 18.976C16.864 19.168 17.152 19.168 17.344 18.976L19 17.32C19.168 17.128 19.168 16.84 18.976 16.648ZM8.27202 14.608C4.67202 14.608 1.86402 11.704 1.84002 8.2C1.81602 4.744 4.57602 1.816 8.27202 1.816C11.872 1.816 14.584 4.624 14.608 8.12801C14.632 11.872 11.68 14.608 8.27202 14.608ZM16.984 17.968L12.904 13.888C13.048 13.768 13.72 13.096 13.888 12.904L17.968 16.984L16.984 17.968Z" fill="#1A827E"/>
</svg>
