<svg width="20" height="20" viewBox="0 0 24 24" fill="none" xmlns="http://www.w3.org/2000/svg">
<path d="M11.9999 10.56C11.2404 10.56 10.498 10.3348 9.86649 9.91285C9.23501 9.4909 8.74283 8.89118 8.45219 8.18951C8.16154 7.48784 8.0855 6.71575 8.23367 5.97086C8.38183 5.22597 8.74756 4.54175 9.28459 4.00472C9.82163 3.46768 10.5058 3.10196 11.2507 2.95379C11.9956 2.80562 12.7677 2.88167 13.4694 3.17231C14.1711 3.46295 14.7708 3.95513 15.1927 4.58662C15.6147 5.2181 15.8399 5.96053 15.8399 6.72001C15.8399 7.73844 15.4353 8.71516 14.7152 9.4353C13.995 10.1554 13.0183 10.56 11.9999 10.56ZM11.9999 3.84001C11.4303 3.84001 10.8735 4.00892 10.3998 4.32537C9.92623 4.64183 9.55709 5.09163 9.33911 5.61788C9.12113 6.14413 9.0641 6.7232 9.17522 7.28187C9.28635 7.84053 9.56064 8.3537 9.96341 8.75647C10.3662 9.15925 10.8794 9.43354 11.438 9.54467C11.9967 9.65579 12.5758 9.59876 13.102 9.38078C13.6283 9.1628 14.0781 8.79366 14.3945 8.32005C14.711 7.84644 14.8799 7.28962 14.8799 6.72001C14.8799 5.95618 14.5765 5.22364 14.0364 4.68354C13.4962 4.14343 12.7637 3.84001 11.9999 3.84001ZM21.1199 21.12H20.1599V20.64C20.1599 18.4758 19.3002 16.4003 17.7699 14.87C16.2396 13.3397 14.164 12.48 11.9999 12.48C9.83572 12.48 7.76019 13.3397 6.22989 14.87C4.69959 16.4003 3.83988 18.4758 3.83988 20.64V21.12H2.87988V20.64C2.87988 18.2212 3.84074 15.9015 5.55107 14.1912C7.2614 12.4809 9.58111 11.52 11.9999 11.52C14.4187 11.52 16.7384 12.4809 18.4487 14.1912C20.159 15.9015 21.1199 18.2212 21.1199 20.64V21.12Z" fill="#1A827E"/>
</svg>
