<svg width="18" height="18" viewBox="0 0 24 24" fill="none" xmlns="http://www.w3.org/2000/svg">
<g clip-path="url(#clip0_6_552)">
<path fill-rule="evenodd" clip-rule="evenodd" d="M9.59021 4.02179H3.26965C2.78728 4.02179 2.38474 4.39011 2.34197 4.87082C2.34197 4.87082 1.31187 16.444 0.915041 20.905C0.852546 21.6081 1.08827 22.3053 1.5647 22.8259C2.04138 23.3468 2.7148 23.6436 3.42055 23.6436H16.6101C17.3158 23.6436 17.9895 23.3468 18.4659 22.8259C18.9424 22.3053 19.1783 21.6081 19.1156 20.905L18.1043 9.53965H20.9068C22.1154 9.53965 23.0948 8.56017 23.0948 7.35161V2.54449C23.0948 1.33593 22.1154 0.356445 20.9068 0.356445H11.7782C10.5697 0.356445 9.59021 1.33593 9.59021 2.54449V4.02179ZM9.59021 4.95328H3.26965C3.26965 4.95328 2.23979 16.5267 1.84272 20.9874C1.80352 21.4303 1.95179 21.8692 2.25191 22.1972C2.55203 22.5251 2.97619 22.7121 3.42055 22.7121H16.6101C17.0544 22.7121 17.4786 22.5251 17.7787 22.1972C18.0788 21.8692 18.2274 21.4303 18.1879 20.9874L17.2291 10.2133L16.4623 11.1429C16.1947 11.4675 15.7428 11.5723 15.3595 11.3988C14.9764 11.2254 14.7571 10.8166 14.8243 10.4013L14.9638 9.53965H14.1027C14.082 10.4108 13.7268 11.242 13.1092 11.8596C12.4726 12.4964 11.6091 12.854 10.7087 12.854H9.32193C8.42158 12.854 7.55805 12.4964 6.92146 11.8596C6.28486 11.223 5.927 10.3595 5.927 9.4591V7.77173C5.927 7.51486 6.1354 7.30647 6.39251 7.30647H6.39322C6.65033 7.30647 6.85849 7.51486 6.85849 7.77173V9.4591C6.85849 10.1123 7.11821 10.7389 7.58015 11.2009C8.04209 11.6631 8.6687 11.9225 9.32193 11.9225H10.7087C11.3619 11.9225 11.9885 11.6631 12.4505 11.2009C12.8934 10.7579 13.1503 10.1637 13.1707 9.53965H11.7782C10.5697 9.53965 9.59021 8.56017 9.59021 7.35161V4.95328ZM16.0583 8.60817L15.7437 10.5503L17.3453 8.60817H20.9068C21.6009 8.60817 22.1634 8.04571 22.1634 7.35161V2.54449C22.1634 1.85039 21.6009 1.28793 20.9068 1.28793H11.7782C11.0842 1.28793 10.5217 1.85039 10.5217 2.54449V7.35161C10.5217 8.04571 11.0842 8.60817 11.7782 8.60817H16.0583ZM16.3425 2.32658C15.4617 1.79169 14.3472 1.9547 13.7113 2.48223C12.9141 3.14377 12.71 4.45878 13.5024 5.78187C13.9221 6.52468 14.9831 7.31288 15.8918 7.81545C16.1721 7.97039 16.5129 7.97039 16.7933 7.81545C17.6986 7.31478 18.7551 6.53062 19.184 5.77926C19.9748 4.45807 19.7707 3.14353 18.9735 2.48223C18.3379 1.9547 17.2234 1.79169 16.3425 2.32658ZM16.3425 3.6214C16.8515 2.77688 17.8697 2.77688 18.379 3.19914C18.888 3.6214 18.888 4.46615 18.379 5.3109C18.0225 5.94441 17.1062 6.57791 16.3425 7.00017C15.5788 6.57791 14.6625 5.94441 14.3061 5.3109C13.7971 4.46615 13.7971 3.6214 14.3061 3.19914C14.8153 2.77688 15.8335 2.77688 16.3425 3.6214Z" fill="#1A827E"/>
</g>
<defs>
<clipPath id="clip0_6_552">
<rect width="24" height="24" fill="white"/>
</clipPath>
</defs>
</svg>
